<mxfile host="app.diagrams.net" modified="2023-05-25T13:10:25.928Z" agent="Mozilla/5.0 (Windows NT 10.0; Win64; x64) AppleWebKit/537.36 (KHTML, like Gecko) Chrome/113.0.0.0 Safari/537.36" etag="wEMpbXr0VX5qSto9o-HX" version="21.3.4" type="device">
  <diagram name="Page-1" id="C07jiP4hGSBpM7NxB5UM">
    <mxGraphModel dx="3176" dy="1848" grid="1" gridSize="10" guides="1" tooltips="1" connect="1" arrows="1" fold="1" page="1" pageScale="1" pageWidth="827" pageHeight="1169" math="0" shadow="0">
      <root>
        <mxCell id="0" />
        <mxCell id="1" parent="0" />
        <mxCell id="Fu5tywdqfOzFSEkpmhYi-1" value="" style="rounded=0;whiteSpace=wrap;html=1;" parent="1" vertex="1">
          <mxGeometry x="200" y="40" width="720" height="1280" as="geometry" />
        </mxCell>
        <mxCell id="Fu5tywdqfOzFSEkpmhYi-3" value="" style="rounded=0;whiteSpace=wrap;html=1;strokeWidth=5;" parent="1" vertex="1">
          <mxGeometry x="200" y="760" width="720" height="560" as="geometry" />
        </mxCell>
        <mxCell id="Fu5tywdqfOzFSEkpmhYi-4" value="Hero" style="rounded=0;whiteSpace=wrap;html=1;fontSize=64;fontColor=#660000;fillColor=#FF3333;fontStyle=1" parent="1" vertex="1">
          <mxGeometry x="200" y="1170" width="360" height="150" as="geometry" />
        </mxCell>
        <mxCell id="Fu5tywdqfOzFSEkpmhYi-6" value="Characters" style="rounded=0;whiteSpace=wrap;html=1;fontSize=64;fontColor=#000066;fillColor=#3333FF;fontStyle=1" parent="1" vertex="1">
          <mxGeometry x="560" y="1170" width="360" height="150" as="geometry" />
        </mxCell>
        <mxCell id="Fu5tywdqfOzFSEkpmhYi-7" value="A1" style="ellipse;whiteSpace=wrap;html=1;aspect=fixed;fontSize=34;" parent="1" vertex="1">
          <mxGeometry x="250" y="1020" width="120" height="120" as="geometry" />
        </mxCell>
        <mxCell id="Fu5tywdqfOzFSEkpmhYi-8" value="A2" style="ellipse;whiteSpace=wrap;html=1;aspect=fixed;fontSize=34;" parent="1" vertex="1">
          <mxGeometry x="500" y="1020" width="120" height="120" as="geometry" />
        </mxCell>
        <mxCell id="Fu5tywdqfOzFSEkpmhYi-9" value="A3" style="ellipse;whiteSpace=wrap;html=1;aspect=fixed;fontSize=34;" parent="1" vertex="1">
          <mxGeometry x="750" y="1020" width="120" height="120" as="geometry" />
        </mxCell>
        <mxCell id="Fu5tywdqfOzFSEkpmhYi-10" value="" style="endArrow=none;html=1;rounded=0;strokeWidth=5;" parent="1" source="Fu5tywdqfOzFSEkpmhYi-14" edge="1">
          <mxGeometry width="50" height="50" relative="1" as="geometry">
            <mxPoint x="820" y="850" as="sourcePoint" />
            <mxPoint x="300" y="850" as="targetPoint" />
          </mxGeometry>
        </mxCell>
        <mxCell id="Fu5tywdqfOzFSEkpmhYi-12" value="S2" style="ellipse;whiteSpace=wrap;html=1;aspect=fixed;fontSize=24;strokeWidth=3;" parent="1" vertex="1">
          <mxGeometry x="520" y="810" width="80" height="80" as="geometry" />
        </mxCell>
        <mxCell id="Fu5tywdqfOzFSEkpmhYi-13" value="S1" style="ellipse;whiteSpace=wrap;html=1;aspect=fixed;fontSize=24;" parent="1" vertex="1">
          <mxGeometry x="360" y="810" width="80" height="80" as="geometry" />
        </mxCell>
        <mxCell id="Fu5tywdqfOzFSEkpmhYi-15" value="" style="endArrow=none;html=1;rounded=0;strokeWidth=5;" parent="1" target="Fu5tywdqfOzFSEkpmhYi-14" edge="1">
          <mxGeometry width="50" height="50" relative="1" as="geometry">
            <mxPoint x="820" y="850" as="sourcePoint" />
            <mxPoint x="300" y="850" as="targetPoint" />
          </mxGeometry>
        </mxCell>
        <mxCell id="Fu5tywdqfOzFSEkpmhYi-14" value="S3" style="ellipse;whiteSpace=wrap;html=1;aspect=fixed;fontSize=24;" parent="1" vertex="1">
          <mxGeometry x="680" y="810" width="80" height="80" as="geometry" />
        </mxCell>
        <mxCell id="Fu5tywdqfOzFSEkpmhYi-25" value="Money: x" style="rounded=0;whiteSpace=wrap;html=1;fontSize=32;strokeColor=none;" parent="1" vertex="1">
          <mxGeometry x="440" y="930" width="250" height="60" as="geometry" />
        </mxCell>
        <mxCell id="Ef5tcGMldBd_fltLsOVX-1" value="" style="group" parent="1" vertex="1" connectable="0">
          <mxGeometry x="210" y="480" width="130" height="280" as="geometry" />
        </mxCell>
        <mxCell id="Fu5tywdqfOzFSEkpmhYi-21" value="" style="verticalLabelPosition=bottom;sketch=0;html=1;fillColor=#282828;strokeColor=none;verticalAlign=top;pointerEvents=1;align=center;shape=mxgraph.cisco_safe.people_places_things_icons.icon8;" parent="Ef5tcGMldBd_fltLsOVX-1" vertex="1">
          <mxGeometry x="5" y="40" width="120" height="240" as="geometry" />
        </mxCell>
        <mxCell id="Fu5tywdqfOzFSEkpmhYi-22" value="Main hero" style="text;html=1;strokeColor=none;fillColor=none;align=center;verticalAlign=middle;whiteSpace=wrap;rounded=0;fontSize=24;" parent="Ef5tcGMldBd_fltLsOVX-1" vertex="1">
          <mxGeometry width="130" height="30" as="geometry" />
        </mxCell>
        <mxCell id="Ef5tcGMldBd_fltLsOVX-2" value="" style="group" parent="1" vertex="1" connectable="0">
          <mxGeometry x="510" y="90" width="410" height="670" as="geometry" />
        </mxCell>
        <mxCell id="Fu5tywdqfOzFSEkpmhYi-23" value="" style="shape=mxgraph.signs.animals.teddy_bear;html=1;pointerEvents=1;fillColor=#FF3333;strokeColor=#b85450;verticalLabelPosition=bottom;verticalAlign=top;align=center;" parent="Ef5tcGMldBd_fltLsOVX-2" vertex="1">
          <mxGeometry y="50" width="410" height="620" as="geometry" />
        </mxCell>
        <mxCell id="Fu5tywdqfOzFSEkpmhYi-24" value="Monster" style="text;html=1;strokeColor=none;fillColor=none;align=center;verticalAlign=middle;whiteSpace=wrap;rounded=0;fontSize=24;" parent="Ef5tcGMldBd_fltLsOVX-2" vertex="1">
          <mxGeometry x="145.77777777777777" width="118.44444444444444" height="30" as="geometry" />
        </mxCell>
        <mxCell id="nd8LNiqMlW7_jCN9Xfrr-1" value="HP: X/X" style="rounded=0;whiteSpace=wrap;html=1;fillColor=#FF0D05;strokeWidth=4;fontSize=24;align=left;" vertex="1" parent="Ef5tcGMldBd_fltLsOVX-2">
          <mxGeometry x="30" y="40" width="350" height="40" as="geometry" />
        </mxCell>
      </root>
    </mxGraphModel>
  </diagram>
</mxfile>
